<mxfile host="app.diagrams.net" modified="2023-06-16T23:50:37.275Z" agent="Mozilla/5.0 (Windows NT 10.0; Win64; x64) AppleWebKit/537.36 (KHTML, like Gecko) Chrome/114.0.0.0 Safari/537.36" etag="BXVq9sUjRNceuq51ruPU" version="21.4.0" type="device">
  <diagram name="Página-1" id="jn0P0FdoEcx82-eWW2MX">
    <mxGraphModel dx="1114" dy="616" grid="1" gridSize="10" guides="1" tooltips="1" connect="1" arrows="1" fold="1" page="1" pageScale="1" pageWidth="827" pageHeight="1169" math="0" shadow="0">
      <root>
        <mxCell id="0" />
        <mxCell id="1" parent="0" />
        <mxCell id="frBwWPaabN3NOnG4ZTTm-2" value="" style="edgeStyle=orthogonalEdgeStyle;rounded=0;orthogonalLoop=1;jettySize=auto;html=1;" edge="1" parent="1" source="frBwWPaabN3NOnG4ZTTm-3">
          <mxGeometry relative="1" as="geometry">
            <mxPoint x="414" y="300" as="targetPoint" />
          </mxGeometry>
        </mxCell>
        <mxCell id="frBwWPaabN3NOnG4ZTTm-3" value="Buscar camino (algoritmo)" style="rounded=0;whiteSpace=wrap;html=1;fillColor=#1ba1e2;fontColor=#ffffff;strokeColor=#006EAF;" vertex="1" parent="1">
          <mxGeometry x="354" y="210" width="120" height="60" as="geometry" />
        </mxCell>
        <mxCell id="frBwWPaabN3NOnG4ZTTm-4" value="" style="edgeStyle=orthogonalEdgeStyle;rounded=0;orthogonalLoop=1;jettySize=auto;html=1;" edge="1" parent="1" source="frBwWPaabN3NOnG4ZTTm-5" target="frBwWPaabN3NOnG4ZTTm-3">
          <mxGeometry relative="1" as="geometry" />
        </mxCell>
        <mxCell id="frBwWPaabN3NOnG4ZTTm-5" value="Estado inicial" style="rounded=1;whiteSpace=wrap;html=1;fillColor=#60a917;fontColor=#ffffff;strokeColor=#2D7600;" vertex="1" parent="1">
          <mxGeometry x="354" y="120" width="120" height="60" as="geometry" />
        </mxCell>
        <mxCell id="frBwWPaabN3NOnG4ZTTm-7" style="edgeStyle=orthogonalEdgeStyle;rounded=0;orthogonalLoop=1;jettySize=auto;html=1;entryX=1;entryY=0.5;entryDx=0;entryDy=0;" edge="1" parent="1" source="frBwWPaabN3NOnG4ZTTm-6" target="frBwWPaabN3NOnG4ZTTm-3">
          <mxGeometry relative="1" as="geometry">
            <Array as="points">
              <mxPoint x="494" y="340" />
              <mxPoint x="494" y="240" />
            </Array>
          </mxGeometry>
        </mxCell>
        <mxCell id="frBwWPaabN3NOnG4ZTTm-8" value="No" style="edgeLabel;html=1;align=center;verticalAlign=middle;resizable=0;points=[];" vertex="1" connectable="0" parent="frBwWPaabN3NOnG4ZTTm-7">
          <mxGeometry x="-0.2117" y="-4" relative="1" as="geometry">
            <mxPoint as="offset" />
          </mxGeometry>
        </mxCell>
        <mxCell id="frBwWPaabN3NOnG4ZTTm-10" value="Si" style="edgeStyle=orthogonalEdgeStyle;rounded=0;orthogonalLoop=1;jettySize=auto;html=1;" edge="1" parent="1" source="frBwWPaabN3NOnG4ZTTm-6" target="frBwWPaabN3NOnG4ZTTm-9">
          <mxGeometry relative="1" as="geometry" />
        </mxCell>
        <mxCell id="frBwWPaabN3NOnG4ZTTm-6" value="¿Encontró el camino correcto?" style="rhombus;whiteSpace=wrap;html=1;fillColor=#e3c800;fontColor=#000000;strokeColor=#B09500;" vertex="1" parent="1">
          <mxGeometry x="351" y="300" width="126" height="80" as="geometry" />
        </mxCell>
        <mxCell id="frBwWPaabN3NOnG4ZTTm-12" value="" style="edgeStyle=orthogonalEdgeStyle;rounded=0;orthogonalLoop=1;jettySize=auto;html=1;" edge="1" parent="1" source="frBwWPaabN3NOnG4ZTTm-9" target="frBwWPaabN3NOnG4ZTTm-11">
          <mxGeometry relative="1" as="geometry" />
        </mxCell>
        <mxCell id="frBwWPaabN3NOnG4ZTTm-9" value="Ejecutar algoritmo" style="rounded=0;whiteSpace=wrap;html=1;fillColor=#1ba1e2;fontColor=#ffffff;strokeColor=#006EAF;" vertex="1" parent="1">
          <mxGeometry x="354" y="410" width="120" height="60" as="geometry" />
        </mxCell>
        <mxCell id="frBwWPaabN3NOnG4ZTTm-11" value="Todos cruzaron el rio" style="rounded=1;whiteSpace=wrap;html=1;fillColor=#60a917;fontColor=#ffffff;strokeColor=#2D7600;" vertex="1" parent="1">
          <mxGeometry x="354" y="500" width="120" height="60" as="geometry" />
        </mxCell>
      </root>
    </mxGraphModel>
  </diagram>
</mxfile>
